<svg viewBox="0 0 91.44 73.98" xmlns="http://www.w3.org/2000/svg"><switch transform="translate(-49.76 -44.5)"><g><path d="m91.94 97.78c1.17-.04 2.36-.07 3.57-.07 1.22 0 2.42.02 3.61.07l3.92-28.3-7.51-11.99-7.51 11.99z" fill="#86c146"/><path d="m103.63 98.06c2.14.19 4.21.45 6.19.79l7.38-26.86-4.68-10.61-7.83 8.13z" fill="#009844"/><path d="m95.53 57.49 4.74-6.31-4.74-6.68-4.74 6.68z" fill="#86c146"/><path d="m126.54 66.99 4.56-3.3-1.07-7.66-5.24 4.83z" fill="#1861ad"/><path d="m112.52 61.38 4.86-5.04-2.44-7.42-5.46 5.55z" fill="#009844"/><path d="m114.34 99.8c2.02.51 3.91 1.1 5.65 1.78l9.37-24.66-2.82-9.93-7.65 5.52z" fill="#1861ad"/><path d="m73.58 56.34 4.86 5.04 3.04-6.91-5.46-5.55z" fill="#f4c41e"/><path d="m64.12 105.43c.91-.74 1.93-1.42 3.07-2.06l-6.83-24.99-6.23-3.92-1.59 8.47z" fill="#e73b18"/><path d="m81.14 98.86c1.98-.34 4.04-.61 6.18-.8l-1.06-28.55-7.83-8.13-4.68 10.61z" fill="#f4c41e"/><path d="m136.83 74.47 4.37-2.75-.68-6.21-4.68 3.67z" fill="#9c3f92"/><path d="m130.6 78.38-6.82 24.96c1.14.63 2.17 1.32 3.08 2.05l11.56-22.47-1.59-8.47z" fill="#9c3f92"/><path d="m59.86 63.69 4.56 3.3 1.74-6.13-5.24-4.83z" fill="#eb8d00"/><path d="m54.13 74.47.99-5.29-4.68-3.67-.68 6.21z" fill="#e73b18"/><path d="m70.97 101.59c1.73-.68 3.62-1.28 5.64-1.78l-4.54-27.3-7.65-5.52-2.82 9.93z" fill="#eb8d00"/><path d="m95.77 99.26h-.24c-12.73 0-27.29 2.33-30.73 8.44l1.55 5.14c1.48 1.48 3.98 2.71 8.04 3.66 5.48 1.28 12.98 1.98 21.14 1.98h.12.12c8.15 0 15.66-.7 21.14-1.98 4.06-.95 6.56-2.17 8.04-3.66l1.55-5.14c-3.43-6.11-17.99-8.44-30.73-8.44zm21.16 15.94c-5.68 1.33-12.59 2.06-21.15 2.06h-.12-.12c-8.57 0-15.48-.73-21.15-2.06-7.45-1.74-6.98-3.64-6.98-3.66s1.77-6.74 28.14-6.74h.12.12c26.37 0 28.14 6.72 28.14 6.74-.02.02.45 1.92-7 3.66z" fill="#aa890d"/></g></switch></svg>