<svg viewBox="0 0 286.3 36.47" xmlns="http://www.w3.org/2000/svg"><switch transform="translate(-158.17 -75.36)"><g fill="#fff"><path d="m176.55 104.19h-18.38v-28.83l18.38.04zm-14.97-3.24h11.47v-22.31h-11.47z"/><path d="m192.03 104.15h-7.21v7.63h-3.41v-28.57h14.42v17.19c0 2.09-1.71 3.75-3.8 3.75zm-7.21-17.83v14.8h7.68v-14.8z"/><path d="m204.44 104.19c-2.09 0-3.75-1.71-3.75-3.8v-17.18h14.12v10.49h-10.75v7.46h10.88v3.03zm-.38-17.87v4.26h7.42v-4.26z"/><path d="m233.74 104.19h-3.2v-17.78h-8.45v17.79h-3.15v-20.99h11c2.09 0 3.8 1.71 3.8 3.8z"/><path d="m263.33 104.23-14.59-.04v-28.79h14.59v3.2h-11.09v7.55h9.81v3.24h-9.81v11.6h11.09z"/><path d="m289.73 104.19h-3.24v-17.78h-6.65v17.19h-3.16v-17.19h-6.53v17.79h-3.2v-20.99h18.98c2.09 0 3.8 1.71 3.8 3.8z"/><path d="m305.59 104.19h-11v-20.98h14.8v17.19c0 2.09-1.71 3.79-3.8 3.79zm-7.85-17.78v14.54h8.45v-14.54z"/><path d="m309.38 108.8h4.99v-25.64h3.37v24.87c0 2.09-1.62 3.8-3.75 3.8h-4.61zm4.99-30.8v3.15h3.37v-3.15z"/><path d="m326.01 78v3.2h-3.41v-3.2zm0 5.21v20.98h-3.41v-20.98z"/><path d="m356.42 86.15h3.16v18.04h-18.55v-28.79h15.4v10.75zm-3.58-7.51h-8.32v7.51h8.32zm-8.32 22.31h11.47v-11.56h-11.47z"/><path d="m378.76 100.4c0 2.05-1.62 3.71-3.63 3.8h-10.7v-13.66h10.92v-4.22h-10.54v-3.11h13.95zm-11.04-6.74v7.51h7.64v-7.51z"/><path d="m384.26 86.32h-2.26v-3.11h2.26v-7.21h3.41v7.21h4.52v3.11h-4.52v14.84h5.12v3.03h-4.73c-2.09 0-3.8-1.71-3.8-3.8z"/><path d="m395.86 86.32h-2.26v-3.11h2.26v-7.21h3.41v7.21h4.52v3.11h-4.52v14.84h5.12v3.03h-4.73c-2.09 0-3.8-1.71-3.8-3.8z"/><path d="m410.23 104.19h-3.41v-28.19h3.41z"/><path d="m418.84 104.19c-2.09 0-3.75-1.71-3.75-3.8v-17.18h14.12v10.49h-10.75v7.46h10.88v3.03zm-.38-17.87v4.26h7.42v-4.26z"/><path d="m433.34 104.19v-20.98h11.13v3.11h-7.72v17.87z"/></g></switch></svg>